<svg width="139" height="139" viewBox="0 0 139 139" fill="none" xmlns="http://www.w3.org/2000/svg">
<path d="M42 7.47274e-06H4.66667C3.429 7.47274e-06 2.24201 0.491673 1.36684 1.36684C0.491673 2.24201 7.47274e-06 3.429 7.47274e-06 4.66667V42C-0.00164607 42.9242 0.271152 43.8281 0.783819 44.597C1.29649 45.366 2.02593 45.9654 2.87968 46.3193C3.73343 46.6732 4.67304 46.7657 5.57939 46.5849C6.48573 46.4041 7.318 45.9583 7.97067 45.304L23.3333 29.932L132.029 138.637L138.637 132.029L29.932 23.3333L45.304 7.97067C45.9583 7.318 46.4041 6.48573 46.5849 5.57939C46.7657 4.67304 46.6732 3.73343 46.3193 2.87968C45.9654 2.02593 45.366 1.29649 44.597 0.783819C43.8281 0.271152 42.9242 -0.00164607 42 7.47274e-06Z" fill="#4F4D4D"/>
</svg>
