<svg width="464" height="464" viewBox="0 0 464 464" fill="none" xmlns="http://www.w3.org/2000/svg">
<g clip-path="url(#clip0_1492_2790)">
<path d="M232 0C103.856 0 0 103.856 0 232C0 360.144 103.856 464 232 464C360.144 464 464 360.144 464 232C464 103.856 360.144 0 232 0ZM324.981 252.481L223.481 353.981C212.153 365.309 193.802 365.309 182.473 353.981C171.145 342.653 171.145 324.302 182.473 312.973L263.537 232L182.519 150.981C171.191 139.653 171.191 121.302 182.519 109.973C193.847 98.6453 212.198 98.6453 223.527 109.973L325.027 211.473C330.691 217.138 333.5 224.569 333.5 232C333.5 239.431 330.691 246.863 324.981 252.481Z" fill="white" fill-opacity="0.9"/>
</g>
<defs>
<clipPath id="clip0_1492_2790">
<rect width="464" height="464" fill="white"/>
</clipPath>
</defs>
</svg>
