<svg width="256" height="256" viewBox="0 0 256 256" fill="none" xmlns="http://www.w3.org/2000/svg">
<path d="M240 94C240 164 136.21 220.66 131.79 223C130.625 223.627 129.323 223.955 128 223.955C126.677 223.955 125.375 223.627 124.21 223C119.79 220.66 16 164 16 94C16.0185 77.5623 22.5566 61.8031 34.1798 50.1798C45.8031 38.5566 61.5623 32.0185 78 32C98.65 32 116.73 40.88 128 55.89C139.27 40.88 157.35 32 178 32C194.438 32.0185 210.197 38.5566 221.82 50.1798C233.443 61.8031 239.981 77.5623 240 94Z" fill="#1B1B1B" fill-opacity="0.8"/>
<path d="M178 28C157.91 28 140.08 35.93 128 49.56C115.92 35.93 98.09 28 78 28C60.5022 28.0212 43.7272 34.9815 31.3543 47.3543C18.9815 59.7272 12.0212 76.5022 12 94C12 166.34 117.81 224.14 122.31 226.57C124.059 227.512 126.014 228.005 128 228.005C129.986 228.005 131.941 227.512 133.69 226.57C138.19 224.14 244 166.34 244 94C243.979 76.5022 237.018 59.7272 224.646 47.3543C212.273 34.9815 195.498 28.0212 178 28ZM172.51 170.36C158.583 182.178 143.694 192.815 128 202.16C112.306 192.815 97.4173 182.178 83.49 170.36C61.82 151.77 36 123.42 36 94C36 82.8609 40.425 72.178 48.3015 64.3015C56.178 56.425 66.8609 52 78 52C95.8 52 110.7 61.4 116.89 76.54C117.791 78.7471 119.329 80.6358 121.308 81.9653C123.286 83.2948 125.616 84.0048 128 84.0048C130.384 84.0048 132.714 83.2948 134.692 81.9653C136.671 80.6358 138.209 78.7471 139.11 76.54C145.3 61.4 160.2 52 178 52C189.139 52 199.822 56.425 207.698 64.3015C215.575 72.178 220 82.8609 220 94C220 123.42 194.18 151.77 172.51 170.36Z" fill="white"/>
</svg>
