<svg width="2529" height="2167" viewBox="0 0 2529 2167" fill="none" xmlns="http://www.w3.org/2000/svg">
<path d="M1828.76 0.125C1595.72 0.125 1391.68 100.337 1264.5 269.727C1137.32 100.337 933.281 0.125 700.242 0.125C514.74 0.334084 336.895 74.1173 205.725 205.287C74.5548 336.457 0.771584 514.302 0.5625 699.805C0.5625 1489.77 1171.85 2129.18 1221.73 2155.59C1234.88 2162.66 1249.57 2166.36 1264.5 2166.36C1279.43 2166.36 1294.12 2162.66 1307.27 2155.59C1357.15 2129.18 2528.44 1489.77 2528.44 699.805C2528.23 514.302 2454.45 336.457 2323.28 205.287C2192.11 74.1173 2014.26 0.334084 1828.76 0.125ZM1264.5 1972.77C1058.43 1852.7 181.125 1305.7 181.125 699.805C181.304 562.181 236.054 430.246 333.369 332.931C430.683 235.617 562.619 180.867 700.242 180.688C919.738 180.687 1104.03 297.602 1180.99 485.387C1187.79 501.945 1199.36 516.108 1214.23 526.075C1229.1 536.042 1246.6 541.364 1264.5 541.364C1282.4 541.364 1299.9 536.042 1314.77 526.075C1329.64 516.108 1341.21 501.945 1348.01 485.387C1424.97 297.263 1609.26 180.688 1828.76 180.688C1966.38 180.867 2098.32 235.617 2195.63 332.931C2292.95 430.246 2347.7 562.181 2347.88 699.805C2347.87 1304.8 1470.34 1852.58 1264.5 1972.77Z" fill="#FDB800"/>
</svg>
