<svg width="2298" height="2298" viewBox="0 0 2298 2298" fill="none" xmlns="http://www.w3.org/2000/svg">
<path d="M2154.38 843.797C2154.38 1472.16 1222.7 1980.77 1183.02 2001.77C1172.56 2007.4 1160.87 2010.34 1149 2010.34C1137.13 2010.34 1125.44 2007.4 1114.98 2001.77C1075.3 1980.77 143.625 1472.16 143.625 843.797C143.791 696.243 202.481 554.779 306.818 450.443C411.154 346.106 552.618 287.416 700.172 287.25C885.538 287.25 1047.83 366.962 1149 501.7C1250.17 366.962 1412.46 287.25 1597.83 287.25C1745.38 287.416 1886.85 346.106 1991.18 450.443C2095.52 554.779 2154.21 696.243 2154.38 843.797Z" fill="#D32F2F"/>
</svg>
