<svg width="848" height="810" viewBox="0 0 848 810" fill="none" xmlns="http://www.w3.org/2000/svg">
<path d="M820.1 285.099L566.2 248.199L452.7 18.0992C449.6 11.7992 444.5 6.6992 438.2 3.5992C422.4 -4.2008 403.2 2.2992 395.3 18.0992L281.8 248.199L27.8999 285.099C20.8999 286.099 14.4999 289.399 9.59992 294.399C3.67609 300.488 0.411794 308.679 0.524299 317.173C0.636804 325.668 4.11691 333.77 10.1999 339.699L193.9 518.799L150.5 771.699C149.482 777.582 150.133 783.633 152.379 789.165C154.625 794.696 158.376 799.488 163.207 802.997C168.037 806.505 173.755 808.59 179.71 809.015C185.665 809.439 191.62 808.187 196.9 805.399L424 685.999L651.1 805.399C657.3 808.699 664.5 809.799 671.4 808.599C688.8 805.599 700.5 789.099 697.5 771.699L654.1 518.799L837.8 339.699C842.8 334.799 846.1 328.399 847.1 321.399C849.8 303.899 837.6 287.699 820.1 285.099Z" fill="#FF8E00"/>
</svg>
