<svg width="11" height="10" viewBox="0 0 11 10" fill="none" xmlns="http://www.w3.org/2000/svg">
<path d="M4.88357 0.363932C5.13572 -0.121314 5.86428 -0.121307 6.11642 0.363932L7.44339 2.91763L10.4107 3.32714C10.9745 3.40495 11.1997 4.06303 10.7916 4.44073L8.6445 6.42848L9.15139 9.2353C9.2477 9.76863 8.65832 10.1754 8.15397 9.92356L5.50002 8.59836L2.84599 9.92356C2.34169 10.1754 1.75229 9.76863 1.84861 9.2353L2.35547 6.42848L0.20834 4.44073C-0.19965 4.06302 0.0254894 3.40495 0.589315 3.32714L3.55657 2.91763L4.88357 0.363932ZM5.50002 0.652872L4.17299 3.20657C4.07287 3.39926 3.87932 3.53282 3.65542 3.56372L0.688158 3.97323L2.83529 5.96103C2.99731 6.11099 3.07123 6.32709 3.03299 6.53888L2.52611 9.34563L5.18011 8.0205C5.38038 7.92048 5.61963 7.92048 5.81987 8.0205L8.47388 9.34563L7.96699 6.53888C7.92877 6.32709 8.00267 6.11099 8.16469 5.96103L10.3118 3.97323L7.34454 3.56372C7.12065 3.53282 6.92715 3.39926 6.82699 3.20657L5.50002 0.652872Z" fill="#212121"/>
</svg>
