<svg width="33" height="33" viewBox="0 0 30 30" fill="none" xmlns="http://www.w3.org/2000/svg">
<path d="M12 10.5C12 8.84314 13.3431 7.5 15 7.5C16.6569 7.5 18 8.84314 18 10.5C18 12.1569 16.6569 13.5 15 13.5C13.3431 13.5 12 12.1569 12 10.5Z" fill="#212121"/>
<path d="M11.25 15H18.75C19.9926 15 21 16.0074 21 17.25C21 18.9241 20.3115 20.2655 19.1819 21.1722C18.0699 22.0647 16.5796 22.5 15 22.5C13.4204 22.5 11.9301 22.0647 10.8182 21.1722C9.68846 20.2655 9 18.9241 9 17.25C9 16.0074 10.0073 15 11.25 15Z" fill="#212121"/>
</svg>
