<svg width="22" height="22" viewBox="0 0 22 22" fill="none" xmlns="http://www.w3.org/2000/svg">
<path d="M9.89995 2.19995C7.4699 2.19995 5.49995 4.1699 5.49995 6.59995C5.49995 9.03 7.4699 11 9.89995 11C12.33 11 14.3 9.03 14.3 6.59995C14.3 4.1699 12.33 2.19995 9.89995 2.19995ZM6.59995 6.59995C6.59995 4.77742 8.07742 3.29995 9.89995 3.29995C11.7225 3.29995 13.2 4.77742 13.2 6.59995C13.2 8.42249 11.7225 9.89995 9.89995 9.89995C8.07742 9.89995 6.59995 8.42249 6.59995 6.59995ZM4.40955 12.1C3.19342 12.1 2.19995 13.0755 2.19995 14.2999C2.19995 16.1603 3.11604 17.5629 4.54844 18.4762C5.95862 19.3754 7.85974 19.7999 9.89995 19.7999C10.3519 19.7999 10.797 19.7792 11.2315 19.7369C10.9702 19.4119 10.7419 19.0592 10.5515 18.684C10.3377 18.6946 10.1204 18.6999 9.89995 18.6999C7.99133 18.6999 6.31745 18.2995 5.13983 17.5487C3.98444 16.812 3.29995 15.7396 3.29995 14.2999C3.29995 13.6913 3.7926 13.2 4.40955 13.2H10.5596C10.7608 12.8064 11.0038 12.4378 11.2829 12.1H4.40955ZM11.6986 15.3118C12.8953 15.0062 13.6059 13.7754 13.2722 12.5862L13.1004 11.9737C13.3799 11.7588 13.6829 11.5748 14.0045 11.4264L14.3756 11.8202C15.2434 12.741 16.7073 12.7418 17.5761 11.8219L17.9333 11.4437C18.2608 11.5982 18.5686 11.79 18.8515 12.0136L18.7127 12.4781C18.3505 13.6904 19.0831 14.9578 20.3144 15.2489L20.6983 15.3397C20.7221 15.5396 20.7343 15.7433 20.7343 15.9498C20.7343 16.1214 20.7258 16.2909 20.7094 16.458L20.2028 16.5874C19.0061 16.8932 18.2955 18.124 18.6291 19.3132L18.8008 19.9256C18.5213 20.1404 18.2185 20.3245 17.8967 20.4729L17.5257 20.0791C16.6579 19.1583 15.194 19.1576 14.3253 20.0775L13.9678 20.456C13.6402 20.3014 13.3325 20.1098 13.0496 19.8863L13.1886 19.4212C13.5509 18.2089 12.8183 16.9415 11.5869 16.6504L11.2024 16.5595C11.1787 16.3597 11.1665 16.1562 11.1665 15.9498C11.1665 15.7781 11.1749 15.6085 11.1914 15.4414L11.6986 15.3118ZM17.0504 15.9498C17.0504 15.3423 16.5579 14.8498 15.9504 14.8498C15.3429 14.8498 14.8504 15.3423 14.8504 15.9498C14.8504 16.5573 15.3429 17.0498 15.9504 17.0498C16.5579 17.0498 17.0504 16.5573 17.0504 15.9498Z" fill="#212121"/>
</svg>
