<svg width="32" height="32" viewBox="0 0 48 48" fill="none" xmlns="http://www.w3.org/2000/svg">
<path d="M37.6 14L28.41 9.99997C27.0195 9.39143 25.518 9.07727 24 9.07727C22.4821 9.07727 20.9806 9.39143 19.59 9.99997L10.4 14C9.69385 14.3081 9.09168 14.8137 8.66592 15.4559C8.24016 16.098 8.00894 16.8495 8.00004 17.62V26.72C6.59985 28.2411 5.84294 30.2453 5.88801 32.3123C5.93308 34.3793 6.77662 36.3486 8.24178 37.8073C9.70694 39.266 11.6799 40.1008 13.7471 40.1367C15.8143 40.1726 17.8151 39.4069 19.33 38L19.59 38.11C20.9806 38.7185 22.4821 39.0327 24 39.0327C25.518 39.0327 27.0195 38.7185 28.41 38.11L37.6 34.11C38.3234 33.7944 38.9373 33.2718 39.3644 32.6081C39.7915 31.9444 40.0126 31.1691 40 30.38V17.62C39.9912 16.8495 39.7599 16.098 39.3342 15.4559C38.9084 14.8137 38.3062 14.3081 37.6 14ZM20.49 19.34L32.65 14L36.38 15.63L28 19.15C25.6165 20.1869 22.9229 20.2551 20.49 19.34ZM15.49 19.42L16.99 20.06V21.89L15.49 21.21V19.42ZM17.31 18L29.6 12.63L30.16 12.88L18.16 18.17L17.91 18.28L17.31 18ZM20.39 11.74C22.5085 10.8184 24.9002 10.7468 27.07 11.54L14.78 16.94L11.62 15.6L20.39 11.74ZM14 38C12.4087 38 10.8826 37.3678 9.7574 36.2426C8.63219 35.1174 8.00004 33.5913 8.00004 32C7.99642 31.6645 8.02657 31.3294 8.09004 31C8.13932 30.659 8.22309 30.324 8.34004 30C8.34004 30 8.34004 30 8.34004 29.95C8.4468 29.6517 8.58069 29.3638 8.74004 29.09L8.84004 28.9C9.00284 28.6324 9.18676 28.3783 9.39004 28.14L9.56004 28C9.77672 27.7533 10.0143 27.5258 10.27 27.32C10.5031 27.1418 10.7469 26.9782 11 26.83L11.09 26.77C11.6655 26.4502 12.2911 26.2305 12.94 26.12C13.2889 26.0475 13.6438 26.0073 14 26C15.5913 26 17.1175 26.6321 18.2427 27.7573C19.3679 28.8826 20 30.4087 20 32C19.9987 32.2375 19.982 32.4746 19.95 32.71C19.9549 32.7832 19.9549 32.8567 19.95 32.93C19.9307 33.0885 19.9006 33.2455 19.86 33.4L19.8 33.64C19.75 33.8 19.7 33.95 19.64 34.1C19.6211 34.1648 19.5977 34.2283 19.57 34.29C19.49 34.49 19.39 34.69 19.29 34.89L19.2 35.03C19.11 35.18 19.02 35.32 18.92 35.46C18.8824 35.5208 18.8388 35.5777 18.79 35.63C18.6914 35.7663 18.5845 35.8966 18.47 36.02L18.36 36.14C18.0343 36.4828 17.6683 36.785 17.27 37.04C16.2982 37.6747 15.1607 38.0086 14 38ZM20.78 36.24C20.92 36.01 21.06 35.76 21.18 35.52L21.3 35.26C21.4331 34.9564 21.5499 34.6459 21.65 34.33C21.6546 34.2801 21.6546 34.2299 21.65 34.18C21.7287 33.8969 21.7921 33.6098 21.84 33.32C21.8449 33.23 21.8449 33.1399 21.84 33.05C21.9188 32.7043 21.9722 32.3534 22 32C22 29.8782 21.1572 27.8434 19.6569 26.3431C18.1566 24.8428 16.1218 24 14 24C13.68 24 13.36 24 13.05 24.06H12.87C12.2281 24.1472 11.5998 24.3152 11 24.56H10.89C10.6 24.69 10.31 24.83 10.03 24.99V17.62C10.033 17.4511 10.0565 17.2832 10.1 17.12L13.53 18.57V21.21C13.533 21.5852 13.6415 21.9521 13.843 22.2686C14.0446 22.5852 14.3312 22.8386 14.67 23L16.17 23.68C16.4299 23.8021 16.7129 23.867 17 23.87C17.5305 23.87 18.0392 23.6593 18.4143 23.2842C18.7893 22.9091 19 22.4004 19 21.87V20.87L19.19 20.95C20.397 21.4888 21.684 21.8266 23 21.95V36.95C22.2123 36.8642 21.4391 36.676 20.7 36.39L20.78 36.24ZM38 30.38C38.0014 30.7703 37.8885 31.1525 37.6753 31.4795C37.462 31.8064 37.1578 32.0638 36.8 32.22L27.61 36.22C26.7789 36.5776 25.8993 36.8101 25 36.91V21.91C26.3131 21.7877 27.5969 21.4498 28.8 20.91L37.93 17.04C37.9736 17.2032 37.9971 17.3711 38 17.54V30.38Z" fill="black"/>
<path d="M31.15 22.35L28 23.52C27.779 23.6002 27.5934 23.7557 27.4756 23.9592C27.3579 24.1626 27.3156 24.4011 27.3562 24.6326C27.3968 24.8642 27.5176 25.074 27.6976 25.2254C27.8775 25.3767 28.1049 25.4597 28.34 25.46C28.456 25.4599 28.571 25.4396 28.68 25.4L31.88 24.23C32.007 24.1881 32.1243 24.1212 32.2249 24.0332C32.3255 23.9451 32.4075 23.8378 32.466 23.7176C32.5244 23.5973 32.5582 23.4666 32.5652 23.3331C32.5723 23.1996 32.5525 23.066 32.507 22.9403C32.4615 22.8145 32.3913 22.6992 32.3005 22.6011C32.2096 22.503 32.1001 22.4241 31.9782 22.369C31.8563 22.314 31.7247 22.284 31.591 22.2807C31.4574 22.2774 31.3244 22.301 31.2 22.35H31.15Z" fill="black"/>
<path d="M17.23 30.37C17.137 30.2763 17.0264 30.2019 16.9046 30.1511C16.7827 30.1004 16.652 30.0742 16.52 30.0742C16.388 30.0742 16.2573 30.1004 16.1354 30.1511C16.0136 30.2019 15.903 30.2763 15.81 30.37L13.38 32.7L12.2 31.54C12.1041 31.4487 11.9912 31.3773 11.8677 31.3296C11.7442 31.282 11.6126 31.2591 11.4803 31.2624C11.3479 31.2656 11.2175 31.2949 11.0965 31.3486C10.9755 31.4022 10.8663 31.4792 10.775 31.575C10.6837 31.6709 10.6122 31.7838 10.5646 31.9073C10.517 32.0308 10.4941 32.1624 10.4974 32.2948C10.5006 32.4271 10.5299 32.5575 10.5835 32.6785C10.6372 32.7995 10.7141 32.9087 10.81 33L12.69 34.8C12.876 34.9773 13.1231 35.0762 13.38 35.0762C13.6369 35.0762 13.884 34.9773 14.07 34.8L17.2 31.8C17.2972 31.7089 17.3753 31.5993 17.4295 31.4776C17.4838 31.3559 17.5132 31.2246 17.516 31.0913C17.5188 30.9581 17.4949 30.8257 17.4458 30.7018C17.3967 30.5779 17.3233 30.4651 17.23 30.37Z" fill="black"/>
</svg>
