<svg width="936" height="904" viewBox="0 0 936 904" fill="none" xmlns="http://www.w3.org/2000/svg">
<path fill-rule="evenodd" clip-rule="evenodd" d="M102.932 567.859C103.519 570.032 104.127 572.203 104.756 574.372C158.666 760.124 373.696 853.626 578.426 794.208C638.017 776.914 690.238 747.412 732.779 709.715L714.597 705.62C675.309 738.43 627.957 764.214 574.245 779.803C375.867 837.377 171.291 746.495 119.577 571.608L102.932 567.859ZM810.342 316.627C740.29 161.294 564.986 65.0701 382.208 118.117C329.783 133.332 283.557 157.933 244.638 189.217L226.166 185.057C268.433 148.959 319.547 120.684 378.027 103.711C572.539 47.2591 758.738 153.102 828.452 320.705L810.342 316.627Z" fill="black"/>
<path d="M79.6 474.75L72.25 445.5H36.4L28.45 474L9.25 472.5L22.45 436.05L42.55 371.55L69.4 369.6L88.75 433.8L101.2 471.45L79.6 474.75ZM55.9 389.1H53.95L41.05 429.6H67.75L55.9 389.1ZM221.287 475.65C212.287 475.65 204.687 472.9 198.487 467.4C192.387 461.9 189.337 455.1 189.337 447L187.837 373.5L209.437 369.75L207.037 435.45C207.037 442.45 208.637 447.9 211.837 451.8C215.137 455.7 220.187 457.65 226.987 457.65C233.787 457.65 238.687 455.75 241.687 451.95C244.687 448.15 246.187 441.6 246.187 432.3L244.387 373.5L265.387 369.75L263.737 435.75C263.737 447.55 259.787 457.15 251.887 464.55C243.987 471.95 233.787 475.65 221.287 475.65ZM397.742 475.65C384.642 475.65 374.092 471.25 366.092 462.45C358.092 453.65 354.092 442 354.092 427.5C354.092 411 359.092 397.1 369.092 385.8C379.092 374.5 391.392 368.85 405.992 368.85C411.792 368.85 417.142 369.4 422.042 370.5C427.042 371.5 430.592 372.55 432.692 373.65L435.692 375.3L426.992 396.15C423.992 394.15 419.942 392.3 414.842 390.6C409.742 388.8 405.242 387.9 401.342 387.9C393.242 387.9 386.742 390.75 381.842 396.45C376.942 402.15 374.492 409.7 374.492 419.1C374.492 431.8 376.792 441.7 381.392 448.8C386.092 455.9 392.592 459.45 400.892 459.45C406.292 459.45 411.392 458.7 416.192 457.2V433.95H396.842L398.342 418.8H434.342L432.992 443.25L434.042 469.2C419.342 473.5 407.242 475.65 397.742 475.65ZM562.853 475.65C553.853 475.65 546.253 472.9 540.053 467.4C533.953 461.9 530.903 455.1 530.903 447L529.403 373.5L551.003 369.75L548.603 435.45C548.603 442.45 550.203 447.9 553.403 451.8C556.703 455.7 561.753 457.65 568.553 457.65C575.353 457.65 580.253 455.75 583.253 451.95C586.253 448.15 587.753 441.6 587.753 432.3L585.953 373.5L606.953 369.75L605.303 435.75C605.303 447.55 601.353 457.15 593.453 464.55C585.553 471.95 575.353 475.65 562.853 475.65ZM704.808 444.15C713.308 452.65 721.808 456.9 730.308 456.9C734.708 456.9 738.208 455.9 740.808 453.9C743.508 451.8 744.858 449.15 744.858 445.95C744.858 442.65 743.258 439.9 740.058 437.7C736.858 435.4 732.958 433.4 728.358 431.7C723.858 430 719.358 428.1 714.858 426C710.358 423.8 706.508 420.7 703.308 416.7C700.108 412.7 698.508 407.85 698.508 402.15C698.508 393.15 702.258 385.4 709.758 378.9C717.258 372.3 726.158 369 736.458 369C741.158 369 745.708 369.5 750.108 370.5C754.508 371.5 758.758 372.95 762.858 374.85L752.658 396.75C749.858 394.55 746.008 392.55 741.108 390.75C736.308 388.85 732.058 387.9 728.358 387.9C724.758 387.9 721.808 388.8 719.508 390.6C717.308 392.3 716.208 394.6 716.208 397.5C716.208 400.4 717.808 403 721.008 405.3C724.208 407.5 728.058 409.45 732.558 411.15C737.158 412.85 741.708 414.75 746.208 416.85C750.808 418.85 754.708 421.85 757.908 425.85C761.108 429.85 762.708 434.7 762.708 440.4C762.708 449.8 758.958 458.05 751.458 465.15C743.958 472.15 735.208 475.65 725.208 475.65C717.708 475.65 711.058 473.85 705.258 470.25C700.158 467.15 696.558 464.4 694.458 462L693.108 460.35L704.808 444.15ZM840.848 387.75L842.498 370.5H913.748L912.098 387.75L885.998 385.5L885.398 435L887.198 474H866.198L867.998 437.55L867.398 385.65L840.848 387.75Z" fill="black"/>
<path d="M350.32 600.64C350.32 600.64 345.493 600.453 335.84 600.08C332.8 600.08 330.56 600.133 329.12 600.24C327.68 600.347 326.907 600.4 326.8 600.4C326.533 600.187 326.4 598.8 326.4 596.24C326.4 593.627 326.613 592.027 327.04 591.44C331.253 587.493 335.467 583.173 339.68 578.48C347.893 569.36 352 563.12 352 559.76C352 556.4 349.493 554.72 344.48 554.72C340.427 554.72 337.653 556.16 336.16 559.04C335.093 561.013 334.347 563.173 333.92 565.52C333.813 565.627 333.387 565.68 332.64 565.68C331.947 565.68 330.933 565.547 329.6 565.28C328.32 565.013 327.573 564.773 327.36 564.56C327.147 564.347 327.04 563.333 327.04 561.52C327.04 559.653 327.147 557.253 327.36 554.32C327.573 551.333 327.787 549.76 328 549.6C328.213 549.387 329.12 549.067 330.72 548.64C335.2 547.413 340.107 546.8 345.44 546.8C350.827 546.8 355.12 547.92 358.32 550.16C361.573 552.347 363.2 555.173 363.2 558.64C363.2 562.427 360.693 567.467 355.68 573.76C351.733 578.72 347.44 583.707 342.8 588.72L340.56 591.2C340.4 591.573 341.92 591.76 345.12 591.76C353.867 591.76 360 591.2 363.52 590.08C363.68 590.08 363.76 590.133 363.76 590.24C363.76 591.627 363.493 593.413 362.96 595.6C362.48 597.733 361.92 599.12 361.28 599.76C360.693 600.347 357.04 600.64 350.32 600.64ZM448.108 555.92C449.921 558.747 451.308 561.813 452.268 565.12C453.228 568.427 453.708 572.133 453.708 576.24C453.708 580.293 453.014 584.107 451.627 587.68C450.241 591.2 448.401 593.867 446.107 595.68C441.627 599.253 436.588 601.04 430.988 601.04C423.361 601.04 417.441 598.347 413.227 592.96C411.734 591.093 410.507 588.613 409.547 585.52C408.641 582.427 408.187 578.773 408.187 574.56C408.187 570.347 408.987 566.133 410.587 561.92C412.187 557.653 414.774 554 418.347 550.96C421.921 547.92 426.134 546.4 430.988 546.4C434.667 546.4 438.001 547.28 440.988 549.04C443.974 550.8 446.348 553.093 448.108 555.92ZM421.947 588.48C424.081 591.413 427.094 592.88 430.988 592.88C434.881 592.88 437.867 591.413 439.947 588.48C442.081 585.547 443.147 581.12 443.147 575.2C443.147 569.28 441.974 564.4 439.627 560.56C437.334 556.72 434.454 554.8 430.988 554.8C427.521 554.8 424.614 556.72 422.267 560.56C419.974 564.4 418.827 569.28 418.827 575.2C418.827 581.12 419.867 585.547 421.947 588.48ZM519.598 600.64C519.598 600.64 514.771 600.453 505.118 600.08C502.078 600.08 499.838 600.133 498.398 600.24C496.958 600.347 496.185 600.4 496.078 600.4C495.811 600.187 495.678 598.8 495.678 596.24C495.678 593.627 495.891 592.027 496.318 591.44C500.531 587.493 504.745 583.173 508.958 578.48C517.171 569.36 521.278 563.12 521.278 559.76C521.278 556.4 518.771 554.72 513.758 554.72C509.705 554.72 506.931 556.16 505.438 559.04C504.371 561.013 503.625 563.173 503.198 565.52C503.091 565.627 502.665 565.68 501.918 565.68C501.225 565.68 500.211 565.547 498.878 565.28C497.598 565.013 496.851 564.773 496.638 564.56C496.425 564.347 496.318 563.333 496.318 561.52C496.318 559.653 496.425 557.253 496.638 554.32C496.851 551.333 497.065 549.76 497.278 549.6C497.491 549.387 498.398 549.067 499.998 548.64C504.478 547.413 509.385 546.8 514.718 546.8C520.105 546.8 524.398 547.92 527.598 550.16C530.851 552.347 532.478 555.173 532.478 558.64C532.478 562.427 529.971 567.467 524.958 573.76C521.011 578.72 516.718 583.707 512.078 588.72L509.838 591.2C509.678 591.573 511.198 591.76 514.398 591.76C523.145 591.76 529.278 591.2 532.798 590.08C532.958 590.08 533.038 590.133 533.038 590.24C533.038 591.627 532.771 593.413 532.238 595.6C531.758 597.733 531.198 599.12 530.558 599.76C529.971 600.347 526.318 600.64 519.598 600.64ZM588.666 566.16C589.306 566.267 590.239 566.32 591.466 566.32C592.746 566.32 594.106 566.08 595.546 565.6C597.039 565.067 598.106 564.427 598.746 563.68C599.919 562.4 600.506 561.173 600.506 560C600.506 558.187 599.572 556.827 597.706 555.92C595.892 555.013 593.946 554.56 591.866 554.56C588.292 554.56 585.252 554.933 582.746 555.68L581.626 556.08C581.252 556.08 581.066 555.44 581.066 554.16C581.066 552.88 581.199 551.467 581.466 549.92C581.732 548.373 582.026 547.44 582.346 547.12C584.852 546.373 587.732 546 590.986 546C594.292 546 597.039 546.187 599.226 546.56C601.466 546.933 603.599 547.573 605.626 548.48C607.652 549.333 609.252 550.613 610.426 552.32C611.599 554.027 612.186 556.133 612.186 558.64C612.186 561.147 611.306 563.307 609.546 565.12C607.839 566.933 606.052 568.16 604.186 568.8C603.919 568.907 603.919 569.013 604.186 569.12C604.506 569.227 604.932 569.387 605.466 569.6C605.999 569.76 606.959 570.213 608.346 570.96C609.732 571.707 610.932 572.587 611.946 573.6C613.012 574.56 613.972 575.947 614.826 577.76C615.679 579.52 616.106 581.707 616.106 584.32C616.106 586.933 615.332 589.413 613.786 591.76C612.292 594.107 610.292 595.947 607.786 597.28C602.772 599.947 597.039 601.28 590.586 601.28C585.946 601.28 582.346 600.88 579.786 600.08L578.506 599.68C578.292 599.413 578.052 597.893 577.786 595.12C577.572 592.347 577.466 590.027 577.466 588.16C577.466 586.24 577.492 585.013 577.546 584.48C577.599 584.213 578.239 583.893 579.466 583.52C580.746 583.093 581.892 582.88 582.906 582.88C583.919 582.88 584.426 582.933 584.426 583.04C584.426 585.867 585.119 588.187 586.506 590C587.892 591.76 590.319 592.64 593.786 592.64C597.252 592.64 599.972 591.76 601.946 590C603.972 588.187 604.986 586.187 604.986 584C604.986 581.76 604.346 580 603.066 578.72C601.786 577.44 600.079 576.533 597.946 576C594.479 575.04 590.692 574.56 586.586 574.56C586.372 574.56 586.266 574.507 586.266 574.4C586.266 572 586.826 569.653 587.946 567.36C588.319 566.56 588.559 566.16 588.666 566.16Z" fill="black"/>
</svg>
