<svg width="936" height="904" viewBox="0 0 936 904" fill="none" xmlns="http://www.w3.org/2000/svg">
<path fill-rule="evenodd" clip-rule="evenodd" d="M102.932 567.859C103.519 570.032 104.127 572.203 104.756 574.372C158.666 760.124 373.696 853.626 578.426 794.208C638.017 776.914 690.238 747.412 732.779 709.715L720.702 706.995C680.309 741.426 631.323 768.444 575.639 784.605C374.786 842.897 166.347 750.711 114.36 571.585C114.241 571.174 114.122 570.764 114.005 570.353L102.932 567.859ZM816.422 317.996C746.459 158.558 567.513 59.1305 380.814 113.315C326.36 129.119 278.491 154.938 238.433 187.819L226.166 185.057C268.433 148.959 319.547 120.684 378.027 103.711C572.539 47.2591 758.738 153.102 828.452 320.705L816.422 317.996Z" fill="black"/>
<path d="M152.92 483.65L146.55 458.3H115.48L108.59 483L91.95 481.7L103.39 450.11L120.81 394.21L144.08 392.52L160.85 448.16L171.64 480.79L152.92 483.65ZM132.38 409.42H130.69L119.51 444.52H142.65L132.38 409.42ZM275.715 484.43C267.915 484.43 261.328 482.047 255.955 477.28C250.668 472.513 248.025 466.62 248.025 459.6L246.725 395.9L265.445 392.65L263.365 449.59C263.365 455.657 264.752 460.38 267.525 463.76C270.385 467.14 274.762 468.83 280.655 468.83C286.548 468.83 290.795 467.183 293.395 463.89C295.995 460.597 297.295 454.92 297.295 446.86L295.735 395.9L313.935 392.65L312.505 449.85C312.505 460.077 309.082 468.397 302.235 474.81C295.388 481.223 286.548 484.43 275.715 484.43ZM428.643 484.43C417.29 484.43 408.146 480.617 401.213 472.99C394.28 465.363 390.813 455.267 390.813 442.7C390.813 428.4 395.146 416.353 403.813 406.56C412.48 396.767 423.14 391.87 435.793 391.87C440.82 391.87 445.456 392.347 449.703 393.3C454.036 394.167 457.113 395.077 458.933 396.03L461.533 397.46L453.993 415.53C451.393 413.797 447.883 412.193 443.463 410.72C439.043 409.16 435.143 408.38 431.763 408.38C424.743 408.38 419.11 410.85 414.863 415.79C410.616 420.73 408.493 427.273 408.493 435.42C408.493 446.427 410.486 455.007 414.473 461.16C418.546 467.313 424.18 470.39 431.373 470.39C436.053 470.39 440.473 469.74 444.633 468.44V448.29H427.863L429.163 435.16H460.363L459.193 456.35L460.103 478.84C447.363 482.567 436.876 484.43 428.643 484.43ZM571.739 484.43C563.939 484.43 557.353 482.047 551.979 477.28C546.693 472.513 544.049 466.62 544.049 459.6L542.749 395.9L561.469 392.65L559.389 449.59C559.389 455.657 560.776 460.38 563.549 463.76C566.409 467.14 570.786 468.83 576.679 468.83C582.573 468.83 586.819 467.183 589.419 463.89C592.019 460.597 593.319 454.92 593.319 446.86L591.759 395.9L609.959 392.65L608.529 449.85C608.529 460.077 605.106 468.397 598.259 474.81C591.413 481.223 582.573 484.43 571.739 484.43ZM694.767 457.13C702.134 464.497 709.5 468.18 716.867 468.18C720.68 468.18 723.714 467.313 725.967 465.58C728.307 463.76 729.477 461.463 729.477 458.69C729.477 455.83 728.09 453.447 725.317 451.54C722.544 449.547 719.164 447.813 715.177 446.34C711.277 444.867 707.377 443.22 703.477 441.4C699.577 439.493 696.24 436.807 693.467 433.34C690.694 429.873 689.307 425.67 689.307 420.73C689.307 412.93 692.557 406.213 699.057 400.58C705.557 394.86 713.27 392 722.197 392C726.27 392 730.214 392.433 734.027 393.3C737.84 394.167 741.524 395.423 745.077 397.07L736.237 416.05C733.81 414.143 730.474 412.41 726.227 410.85C722.067 409.203 718.384 408.38 715.177 408.38C712.057 408.38 709.5 409.16 707.507 410.72C705.6 412.193 704.647 414.187 704.647 416.7C704.647 419.213 706.034 421.467 708.807 423.46C711.58 425.367 714.917 427.057 718.817 428.53C722.804 430.003 726.747 431.65 730.647 433.47C734.634 435.203 738.014 437.803 740.787 441.27C743.56 444.737 744.947 448.94 744.947 453.88C744.947 462.027 741.697 469.177 735.197 475.33C728.697 481.397 721.114 484.43 712.447 484.43C705.947 484.43 700.184 482.87 695.157 479.75C690.737 477.063 687.617 474.68 685.797 472.6L684.627 471.17L694.767 457.13ZM812.668 408.25L814.098 393.3H875.848L874.418 408.25L851.798 406.3L851.278 449.2L852.838 483H834.638L836.198 451.41L835.678 406.43L812.668 408.25Z" fill="black"/>
<path d="M325.08 613V608.12C334.627 599.907 341.187 593.4 344.76 588.6C348.387 583.747 350.2 579.107 350.2 574.68C350.2 568.12 347.293 564.84 341.48 564.84C338.92 564.84 336.867 565.613 335.32 567.16C333.773 568.653 333 570.413 333 572.44C333 574.413 333.587 576.173 334.76 577.72C333.64 578.947 332.253 579.56 330.6 579.56C328.947 579.56 327.613 579.053 326.6 578.04C325.64 577.027 325.16 575.427 325.16 573.24C325.16 569.987 326.76 567.107 329.96 564.6C333.213 562.093 337.24 560.84 342.04 560.84C346.84 560.84 350.733 562.147 353.72 564.76C356.707 567.373 358.2 570.92 358.2 575.4C358.2 579.827 356.36 584.467 352.68 589.32C349 594.173 342.813 599.96 334.12 606.68H360.28V613H325.08ZM417.576 603.72C419.23 607.4 422.376 609.24 427.016 609.24C431.656 609.24 434.803 607.4 436.456 603.72C438.11 600.04 438.936 594.52 438.936 587.16C438.936 579.747 438.11 574.227 436.456 570.6C434.803 566.92 431.656 565.08 427.016 565.08C422.376 565.08 419.23 566.92 417.576 570.6C415.923 574.227 415.096 579.747 415.096 587.16C415.096 594.52 415.923 600.04 417.576 603.72ZM441.816 606.52C438.51 611.16 433.576 613.48 427.016 613.48C420.456 613.48 415.523 611.16 412.216 606.52C408.91 601.827 407.256 595.347 407.256 587.08C407.256 578.813 408.91 572.387 412.216 567.8C415.523 563.16 420.456 560.84 427.016 560.84C433.576 560.84 438.51 563.16 441.816 567.8C445.123 572.387 446.776 578.813 446.776 587.08C446.776 595.347 445.123 601.827 441.816 606.52ZM494.436 613V608.12C503.983 599.907 510.543 593.4 514.116 588.6C517.743 583.747 519.556 579.107 519.556 574.68C519.556 568.12 516.65 564.84 510.836 564.84C508.276 564.84 506.223 565.613 504.676 567.16C503.13 568.653 502.356 570.413 502.356 572.44C502.356 574.413 502.943 576.173 504.116 577.72C502.996 578.947 501.61 579.56 499.956 579.56C498.303 579.56 496.97 579.053 495.956 578.04C494.996 577.027 494.516 575.427 494.516 573.24C494.516 569.987 496.116 567.107 499.316 564.6C502.57 562.093 506.596 560.84 511.396 560.84C516.196 560.84 520.09 562.147 523.076 564.76C526.063 567.373 527.556 570.92 527.556 575.4C527.556 579.827 525.716 584.467 522.036 589.32C518.356 594.173 512.17 599.96 503.476 606.68H529.636V613H494.436ZM587.892 587.72V583.96C592.212 583.853 595.519 582.893 597.812 581.08C600.159 579.267 601.332 576.84 601.332 573.8C601.332 570.707 600.639 568.44 599.252 567C597.866 565.507 595.892 564.76 593.332 564.76C590.772 564.76 588.772 565.453 587.332 566.84C585.946 568.227 585.252 569.96 585.252 572.04C585.252 573.213 585.546 574.307 586.132 575.32C584.799 576.333 583.439 576.84 582.052 576.84C580.666 576.84 579.599 576.333 578.852 575.32C578.106 574.307 577.732 572.973 577.732 571.32C577.732 568.387 579.226 565.907 582.212 563.88C585.199 561.8 588.986 560.76 593.572 560.76C598.212 560.76 601.972 561.933 604.852 564.28C607.786 566.573 609.252 569.56 609.252 573.24C609.252 579.213 605.572 583.373 598.212 585.72C605.999 587.587 609.892 591.987 609.892 598.92C609.892 603.187 608.319 606.707 605.172 609.48C602.026 612.2 597.839 613.56 592.612 613.56C587.386 613.56 583.252 612.52 580.212 610.44C577.172 608.36 575.652 605.507 575.652 601.88C575.652 600.387 576.132 599.24 577.092 598.44C578.052 597.587 579.252 597.16 580.692 597.16C582.132 597.16 583.466 597.64 584.692 598.6C584.212 599.88 583.972 601.107 583.972 602.28C583.972 604.467 584.772 606.227 586.372 607.56C588.026 608.893 590.292 609.56 593.172 609.56C596.052 609.56 598.292 608.6 599.892 606.68C601.546 604.76 602.372 602.12 602.372 598.76C602.372 595.4 601.146 592.733 598.692 590.76C596.239 588.733 592.639 587.72 587.892 587.72Z" fill="black"/>
</svg>
