<svg width="20" height="19" viewBox="0 0 24 23" fill="none" xmlns="http://www.w3.org/2000/svg">
<path d="M0 8.7944V3.50994C0 2.97815 0.311261 2.49201 0.804029 2.25418L5.16751 0.148218C5.57698 -0.0494059 6.05896 -0.0494059 6.46843 0.148218L10.8319 2.25418C11.3247 2.49201 11.6359 2.97815 11.6359 3.50994V8.7944C11.6359 9.3262 11.3247 9.81234 10.8319 10.0502L6.46843 12.1561C6.05896 12.3538 5.57698 12.3538 5.16751 12.1561L0.804029 10.0502C0.311261 9.81234 0 9.3262 0 8.7944ZM1.51177 3.77315C1.35553 4.13031 1.52883 4.54211 1.89885 4.69291L5.09078 5.99385L5.09072 9.6621C5.09072 10.0498 5.41631 10.3641 5.81796 10.3641C6.21961 10.3641 6.54522 10.0498 6.54522 9.66213L6.54527 5.99385L9.7371 4.69291C10.1071 4.5421 10.2804 4.1303 10.1242 3.77314C9.96793 3.41598 9.54132 3.2487 9.1713 3.39951L5.81803 4.76626L2.46462 3.39951C2.09461 3.2487 1.668 3.41598 1.51177 3.77315ZM0.789033 17.7351V11.6125L2.24353 12.3145V17.7351C2.24353 18.3168 2.73193 18.7881 3.33439 18.7881H3.70968C4.04659 17.186 5.514 15.9801 7.27318 15.9801C9.03235 15.9801 10.4997 17.186 10.8367 18.7881H12.4366C12.7735 17.186 14.2409 15.9801 16.0001 15.9801C16.2492 15.9801 16.4923 16.0044 16.7274 16.0503V4.39739C16.7274 3.81585 16.239 3.34441 15.6365 3.34441H13.0861C13.0549 2.83475 12.8811 2.35143 12.5942 1.94043H15.6365C17.0423 1.94043 18.1819 3.04045 18.1819 4.39739V6.15244L19.4646 6.15227C20.291 6.15216 21.0466 6.60285 21.4162 7.31642L23.7696 11.8596C23.9212 12.152 24 12.4745 24 12.8015V18.0859C24 19.249 23.0232 20.1919 21.8183 20.1919H19.5637C19.2268 21.7941 17.7594 23 16.0001 23C14.2409 23 12.7735 21.7943 12.4366 20.192H10.8367C10.4997 21.7943 9.03235 23 7.27318 23C5.514 23 4.04659 21.7943 3.70968 20.192H3.33439C1.92863 20.192 0.789033 19.092 0.789033 17.7351ZM19.5635 18.7879H21.8183C22.2198 18.7879 22.5455 18.4736 22.5455 18.0859V13.1722H18.1819V16.682C18.88 17.1881 19.3834 17.9314 19.5635 18.7879ZM22.0961 11.7682L20.1153 7.94429C19.9921 7.70643 19.7402 7.55621 19.4647 7.55625L18.1819 7.55642V11.7682H22.0961ZM5.09144 19.4901C5.09144 20.6533 6.06823 21.596 7.27318 21.596C8.47812 21.596 9.45491 20.6533 9.45491 19.4901C9.45491 18.327 8.47812 17.3841 7.27318 17.3841C6.06823 17.3841 5.09144 18.327 5.09144 19.4901ZM16.0001 21.596C17.205 21.596 18.1819 20.6533 18.1819 19.4901C18.1819 18.327 17.205 17.3841 16.0001 17.3841C14.7952 17.3841 13.8184 18.327 13.8184 19.4901C13.8184 20.6533 14.7952 21.596 16.0001 21.596Z" fill="#212121"/>
</svg>
