<svg width="1951" height="1951" viewBox="0 0 1951 1951" fill="none" xmlns="http://www.w3.org/2000/svg">
<path d="M1073.78 252.217C1033.53 170.651 917.214 170.652 876.958 252.217L685.279 640.607L256.666 702.888C166.652 715.968 130.709 826.589 195.844 890.078L505.992 1192.39L432.775 1619.27C417.399 1708.93 511.497 1777.3 592.008 1734.97L831.37 1609.13L856.082 1510.16C861.7 1487.67 869.877 1466.01 880.388 1445.59L557.135 1615.54L627.258 1206.69C633.363 1171.09 621.561 1134.77 595.695 1109.55L298.651 820.005L709.157 760.355C744.901 755.161 775.802 732.711 791.787 700.321L975.37 328.339L1158.96 700.321C1174.94 732.711 1205.84 755.161 1241.58 760.355L1603.31 812.916C1662.43 813.022 1721.53 832.662 1770.1 871.836C1813.1 807.409 1775.96 714.787 1694.08 702.888L1265.47 640.607L1073.78 252.217Z" fill="#212121"/>
<path d="M1471.38 948.634L992.075 1428.45C964.135 1456.42 944.308 1491.48 934.724 1529.86L897.557 1678.68C881.396 1743.4 939.959 1802.03 1004.6 1785.84L1153.27 1748.63C1191.61 1739.04 1226.62 1719.2 1254.57 1691.22L1733.86 1211.4C1806.35 1138.84 1806.35 1021.19 1733.86 948.634C1661.38 876.065 1543.86 876.065 1471.38 948.634Z" fill="#212121"/>
</svg>
