<svg width="20" height="20" viewBox="0 0 22 22" fill="none" xmlns="http://www.w3.org/2000/svg">
<path d="M11 2.19995C15.8601 2.19995 19.7999 6.13984 19.7999 11C19.7999 15.8601 15.8601 19.7999 11 19.7999C6.13984 19.7999 2.19995 15.8601 2.19995 11C2.19995 6.13984 6.13984 2.19995 11 2.19995ZM11 3.29995C6.74736 3.29995 3.29995 6.74736 3.29995 11C3.29995 15.2526 6.74736 18.6999 11 18.6999C15.2526 18.6999 18.6999 15.2526 18.6999 11C18.6999 6.74736 15.2526 3.29995 11 3.29995ZM11 14.8499C11.4556 14.8499 11.825 15.2193 11.825 15.6749C11.825 16.1306 11.4556 16.5 11 16.5C10.5443 16.5 10.175 16.1306 10.175 15.6749C10.175 15.2193 10.5443 14.8499 11 14.8499ZM11 6.04995C12.5187 6.04995 13.75 7.28117 13.75 8.79995C13.75 9.6025 13.4032 10.3485 12.8164 10.8648L12.6463 11.0026L12.406 11.182L12.3096 11.2609C12.2482 11.3136 12.1918 11.367 12.138 11.4244C11.7659 11.821 11.55 12.3664 11.55 13.2C11.55 13.5037 11.3037 13.75 11 13.75C10.6962 13.75 10.45 13.5037 10.45 13.2C10.45 12.0868 10.7724 11.2722 11.3359 10.6717C11.4581 10.5415 11.5852 10.4278 11.7269 10.3166L11.9983 10.1138L12.1281 10.0041C12.4575 9.69574 12.65 9.26422 12.65 8.79995C12.65 7.88868 11.9112 7.14995 11 7.14995C10.0887 7.14995 9.34995 7.88868 9.34995 8.79995C9.34995 9.1037 9.1037 9.34995 8.79995 9.34995C8.4962 9.34995 8.24995 9.1037 8.24995 8.79995C8.24995 7.28117 9.48117 6.04995 11 6.04995Z" fill="#212121"/>
</svg>
