<svg width="20" height="20" viewBox="0 0 22 22" fill="none" xmlns="http://www.w3.org/2000/svg">
<path d="M9.35002 12.3751C9.80566 12.3751 10.175 12.0057 10.175 11.5501C10.175 11.0945 9.80566 10.7251 9.35002 10.7251C8.89439 10.7251 8.52502 11.0945 8.52502 11.5501C8.52502 12.0057 8.89439 12.3751 9.35002 12.3751Z" fill="#212121"/>
<path d="M12.1 3.85005C12.1 3.68967 12.0301 3.53729 11.9083 3.4328C11.7867 3.32831 11.6255 3.28213 11.4669 3.30637L3.76694 4.48337C3.4984 4.52442 3.30005 4.75539 3.30005 5.02705V16.9731C3.30005 17.2446 3.49836 17.4756 3.76687 17.5168L11.4669 18.6949C11.6254 18.7191 11.7867 18.673 11.9083 18.5685C12.03 18.464 12.1 18.3115 12.1 18.1512V11.0001H17.7895L16.6929 11.9611C16.4647 12.1612 16.4415 12.5086 16.6413 12.7373C16.8409 12.9659 17.1879 12.989 17.4161 12.789L19.6125 10.864C19.7317 10.7595 19.8 10.6087 19.8 10.4501C19.8 10.2915 19.7317 10.1406 19.6125 10.0361L17.4161 8.11115C17.1879 7.91112 16.8409 7.93429 16.6413 8.16289C16.4415 8.39149 16.4647 8.73896 16.6929 8.93898L17.7896 9.90008H12.1V3.85005ZM11 4.49052V17.5106L4.40005 16.5008V5.49937L11 4.49052Z" fill="#212121"/>
<path d="M13.75 17.6001H13.2V12.1001H14.3V17.0501C14.3 17.3538 14.0537 17.6001 13.75 17.6001Z" fill="#212121"/>
<path d="M13.2 8.7999V4.3999H13.75C14.0537 4.3999 14.3 4.64615 14.3 4.9499V8.7999H13.2Z" fill="#212121"/>
</svg>
