<svg width="18" height="20" viewBox="0 0 22 24" fill="none" xmlns="http://www.w3.org/2000/svg">
<path d="M9.50005 0.699951C6.51771 0.699951 4.10005 3.11761 4.10005 6.09995C4.10005 9.08229 6.51771 11.5 9.50005 11.5C12.4823 11.5 14.9 9.08229 14.9 6.09995C14.9 3.11761 12.4823 0.699951 9.50005 0.699951ZM5.45005 6.09995C5.45005 3.8632 7.2633 2.04995 9.50005 2.04995C11.7369 2.04995 13.55 3.8632 13.55 6.09995C13.55 8.3367 11.7369 10.15 9.50005 10.15C7.2633 10.15 5.45005 8.3367 5.45005 6.09995ZM2.76183 12.85C1.2693 12.85 0.0500488 14.0473 0.0500488 15.55C0.0500488 17.8331 1.17434 19.5545 2.93229 20.6754C4.38764 21.6034 6.26905 22.1195 8.31977 22.2601L8.72433 20.9316C6.70514 20.8345 4.94148 20.3554 3.65809 19.537C2.2401 18.6329 1.40005 17.3168 1.40005 15.55C1.40005 14.803 2.00466 14.2 2.76183 14.2H8.95944C9.20634 13.7169 9.50464 13.2645 9.847 12.85H2.76183ZM21.65 17.575C21.65 20.9301 18.9302 23.65 15.575 23.65C14.5065 23.65 13.5024 23.374 12.63 22.8896L10.2147 23.6246C9.79192 23.7532 9.39688 23.3581 9.52556 22.9354L10.2608 20.5208C9.77612 19.6483 9.50005 18.6439 9.50005 17.575C9.50005 14.2198 12.2199 11.5 15.575 11.5C18.9302 11.5 21.65 14.2198 21.65 17.575ZM12.875 15.55C12.5023 15.55 12.2 15.8522 12.2 16.225C12.2 16.5977 12.5023 16.9 12.875 16.9H18.275C18.6478 16.9 18.95 16.5977 18.95 16.225C18.95 15.8522 18.6478 15.55 18.275 15.55H12.875ZM12.2 18.925C12.2 19.2977 12.5023 19.6 12.875 19.6H15.575C15.9478 19.6 16.25 19.2977 16.25 18.925C16.25 18.5522 15.9478 18.25 15.575 18.25H12.875C12.5023 18.25 12.2 18.5522 12.2 18.925Z" fill="#212121"/>
</svg>
