<svg width="20" height="20" viewBox="0 0 20 20" fill="none" xmlns="http://www.w3.org/2000/svg">
<path d="M16.875 16.875H3.125C3.01846 16.8747 2.91377 16.8471 2.82088 16.795C2.72798 16.7428 2.64996 16.6677 2.59423 16.5769C2.53849 16.4861 2.5069 16.3826 2.50244 16.2762C2.49798 16.1697 2.52081 16.0639 2.56875 15.9688C3.33992 14.4144 3.74404 12.7038 3.75 10.9688V8.75C3.75 7.0924 4.40848 5.50269 5.58058 4.33058C6.75269 3.15848 8.3424 2.5 10 2.5C11.6576 2.5 13.2473 3.15848 14.4194 4.33058C15.5915 5.50269 16.25 7.0924 16.25 8.75V10.9563C16.256 12.6913 16.6601 14.4019 17.4312 15.9563C17.4821 16.0518 17.5073 16.159 17.5044 16.2672C17.5014 16.3755 17.4703 16.4811 17.4142 16.5737C17.3582 16.6663 17.279 16.7428 17.1844 16.7956C17.0899 16.8484 16.9833 16.8758 16.875 16.875ZM4.09375 15.625H15.9063C15.3102 14.1405 15.0027 12.5559 15 10.9563V8.75C15 7.42392 14.4732 6.15215 13.5355 5.21447C12.5979 4.27678 11.3261 3.75 10 3.75C8.67392 3.75 7.40215 4.27678 6.46447 5.21447C5.52678 6.15215 5 7.42392 5 8.75V10.9563C4.99733 12.5559 4.68976 14.1405 4.09375 15.625Z" fill="#101820"/>
<path d="M10 19.375C9.1712 19.375 8.37634 19.0458 7.79029 18.4597C7.20424 17.8737 6.875 17.0788 6.875 16.25C6.875 16.0842 6.94085 15.9253 7.05806 15.8081C7.17527 15.6908 7.33424 15.625 7.5 15.625C7.66576 15.625 7.82473 15.6908 7.94194 15.8081C8.05915 15.9253 8.125 16.0842 8.125 16.25C8.12544 16.7471 8.32327 17.2237 8.675 17.575C9.03267 17.9144 9.50694 18.1036 10 18.1036C10.4931 18.1036 10.9673 17.9144 11.325 17.575C11.3833 17.5167 11.4525 17.4705 11.5286 17.439C11.6047 17.4074 11.6863 17.3912 11.7688 17.3912C11.8512 17.3912 11.9328 17.4074 12.0089 17.439C12.085 17.4705 12.1542 17.5167 12.2125 17.575C12.2708 17.6333 12.317 17.7025 12.3485 17.7786C12.3801 17.8547 12.3963 17.9363 12.3963 18.0187C12.3963 18.1012 12.3801 18.1828 12.3485 18.2589C12.317 18.335 12.2708 18.4042 12.2125 18.4625C11.9218 18.7525 11.5767 18.9824 11.1971 19.1389C10.8174 19.2955 10.4107 19.3757 10 19.375Z" fill="#101820"/>
<path d="M10 3.75C9.83424 3.75 9.67527 3.68415 9.55806 3.56694C9.44085 3.44973 9.375 3.29076 9.375 3.125V1.25C9.375 1.08424 9.44085 0.925268 9.55806 0.808058C9.67527 0.690848 9.83424 0.625 10 0.625C10.1658 0.625 10.3247 0.690848 10.4419 0.808058C10.5592 0.925268 10.625 1.08424 10.625 1.25V3.125C10.625 3.29076 10.5592 3.44973 10.4419 3.56694C10.3247 3.68415 10.1658 3.75 10 3.75Z" fill="#101820"/>
</svg>
