<svg width="22" height="22" viewBox="0 0 22 22" fill="none" xmlns="http://www.w3.org/2000/svg">
<path d="M6.05005 3.30005C4.53127 3.30005 3.30005 4.53127 3.30005 6.05005V15.95C3.30005 17.4688 4.53127 18.7 6.05005 18.7H10.5597C10.3816 18.3516 10.2363 17.9835 10.1278 17.6H6.05005C5.13878 17.6 4.40005 16.8613 4.40005 15.95V7.70005H17.6001V10.1278C17.9835 10.2363 18.3516 10.3816 18.7001 10.5597V6.05005C18.7001 4.53127 17.4688 3.30005 15.9501 3.30005H6.05005ZM4.40005 6.05005C4.40005 5.13878 5.13878 4.40005 6.05005 4.40005H15.9501C16.8613 4.40005 17.6001 5.13878 17.6001 6.05005V6.60005H4.40005V6.05005ZM9.90005 9.35005V15.95C9.90005 16.2538 9.6538 16.5 9.35005 16.5H6.05005C5.7463 16.5 5.50005 16.2538 5.50005 15.95V9.35005C5.50005 9.0463 5.7463 8.80005 6.05005 8.80005H9.35005C9.6538 8.80005 9.90005 9.0463 9.90005 9.35005ZM6.60005 9.90005V15.4H8.80005V9.90005H6.60005ZM10.9974 9.35002C10.9974 9.04626 11.2436 8.80002 11.5474 8.80002H15.9499C16.2538 8.80002 16.4999 9.04626 16.4999 9.35002C16.4999 9.65377 16.2538 9.90002 15.9499 9.90002H11.5474C11.2436 9.90002 10.9974 9.65377 10.9974 9.35002ZM13.2723 12.5862C13.6059 13.7755 12.8954 15.0062 11.6987 15.3119L11.1914 15.4415C11.1749 15.6086 11.1666 15.7782 11.1666 15.9499C11.1666 16.1563 11.1788 16.3598 11.2024 16.5596L11.587 16.6505C12.8183 16.9416 13.551 18.209 13.1887 19.4213L13.0497 19.8864C13.3326 20.1099 13.6403 20.3015 13.9678 20.4561L14.3253 20.0776C15.1941 19.1576 16.658 19.1584 17.5258 20.0792L17.8968 20.473C18.2186 20.3246 18.5214 20.1405 18.8009 19.9257L18.6292 19.3133C18.2956 18.1241 19.0062 16.8933 20.2029 16.5875L20.7095 16.4581C20.7259 16.291 20.7344 16.1215 20.7344 15.9499C20.7344 15.7434 20.7222 15.5397 20.6984 15.3398L20.3145 15.249C19.0832 14.9578 18.3506 13.6905 18.7128 12.4782L18.8516 12.0137C18.5687 11.7901 18.2609 11.5983 17.9334 11.4438L17.5762 11.822C16.7074 12.7419 15.2435 12.7411 14.3757 11.8203L14.0046 11.4265C13.683 11.5749 13.38 11.7589 13.1005 11.9738L13.2723 12.5862ZM15.9505 17.0499C15.343 17.0499 14.8505 16.5574 14.8505 15.9499C14.8505 15.3424 15.343 14.8499 15.9505 14.8499C16.558 14.8499 17.0505 15.3424 17.0505 15.9499C17.0505 16.5574 16.558 17.0499 15.9505 17.0499Z" fill="#212121"/>
</svg>
