<svg width="30" height="30" viewBox="0 0 178 283" fill="none" xmlns="http://www.w3.org/2000/svg">
<path d="M89.6286 0.417969H87.9301C50.1104 0.417969 19.3482 26.934 19.3482 59.5424V122.496C7.55389 135.25 0.454102 151.344 0.454102 168.856V207.456C0.454102 248.705 39.5715 282.262 87.6717 282.262H89.8976C137.987 282.262 177.115 248.71 177.115 207.456V168.856C177.115 151.344 169.994 135.24 158.2 122.475V59.5424C158.2 26.934 127.438 0.417969 89.6286 0.417969ZM37.2875 59.5424C37.2875 36.8241 60.0163 18.352 87.9354 18.352H89.6339C117.553 18.352 140.271 36.8241 140.271 59.5424V107.891C126.024 99.2083 108.665 94.0444 89.9029 94.0444H87.677C68.8937 94.0444 51.5345 99.2083 37.2875 107.912V59.5424ZM159.181 168.856V207.456C159.181 238.814 128.097 264.323 89.8976 264.323H87.6717C49.4616 264.323 18.3776 238.814 18.3776 207.456V168.856C18.3776 137.498 49.4616 111.978 87.6717 111.978H89.8976C128.097 111.978 159.181 137.498 159.181 168.856Z" fill="black"/>
<path d="M97.7358 165.729H79.8018V216.187H97.7358V165.729Z" fill="black"/>
</svg>
