<svg width="20" height="20" viewBox="0 0 22 22" fill="none" xmlns="http://www.w3.org/2000/svg">
<path d="M2.10177 8.12083C2.50799 6.86449 3.17718 5.71125 4.06015 4.73391C4.20946 4.56863 4.44371 4.50973 4.65343 4.58472L6.76355 5.33921C7.33563 5.54365 7.96513 5.24562 8.16956 4.67353C8.18967 4.61728 8.20515 4.55948 8.21585 4.50081L8.61785 2.29421C8.65783 2.0748 8.82633 1.90125 9.04445 1.85483C9.68265 1.71898 10.337 1.6499 10.9999 1.6499C11.6625 1.6499 12.3164 1.71891 12.9543 1.85458C13.1723 1.90097 13.3409 2.0744 13.3809 2.29372L13.784 4.50072C13.8931 5.09837 14.4659 5.49451 15.0636 5.38551C15.1223 5.3748 15.1802 5.35931 15.2363 5.33925L17.3465 4.58472C17.5562 4.50973 17.7905 4.56863 17.9397 4.73391C18.8227 5.71125 19.4919 6.86449 19.8982 8.12083C19.9667 8.33278 19.9006 8.56514 19.7308 8.70931L18.0205 10.1614C17.5574 10.5546 17.5007 11.2488 17.894 11.7119C17.9326 11.7575 17.9749 11.7997 18.0205 11.8384L19.7308 13.2905C19.9006 13.4346 19.9667 13.6671 19.8982 13.8789C19.4919 15.1354 18.8227 16.2886 17.9397 17.2659C17.7905 17.4312 17.5562 17.4901 17.3465 17.4151L15.2364 16.6606C14.6643 16.4561 14.0348 16.7542 13.8304 17.3262C13.8102 17.3825 13.7948 17.4403 13.784 17.4993L13.3809 19.7061C13.3409 19.9254 13.1723 20.0989 12.9543 20.1452C12.3164 20.2809 11.6625 20.3499 10.9999 20.3499C10.337 20.3499 9.68265 20.2808 9.04445 20.145C8.82633 20.0986 8.65783 19.925 8.61785 19.7056L8.21587 17.4991C8.10687 16.9014 7.53402 16.5053 6.93636 16.6143C6.8776 16.625 6.81981 16.6405 6.76364 16.6606L4.65343 17.4151C4.44371 17.4901 4.20946 17.4312 4.06015 17.2659C3.17718 16.2886 2.50799 15.1354 2.10177 13.8789C2.03324 13.6671 2.09932 13.4346 2.26913 13.2905L3.97945 11.8384C4.44254 11.4452 4.49918 10.751 4.10596 10.2879C4.0673 10.2424 4.02499 10.2001 3.97947 10.1614L2.26913 8.70931C2.09932 8.56514 2.03324 8.33278 2.10177 8.12083ZM3.26838 8.1147L4.69144 9.32291C4.78251 9.40024 4.86713 9.48486 4.94446 9.57593C5.73089 10.5021 5.61762 11.8905 4.69142 12.677L3.26838 13.8851C3.58963 14.7455 4.05323 15.5453 4.6378 16.2525L6.39338 15.6247C6.50589 15.5846 6.62149 15.5536 6.73902 15.5321C7.93433 15.3141 9.08003 16.1064 9.29804 17.3018L9.63241 19.1372C10.0811 19.212 10.5379 19.2499 10.9999 19.2499C11.4616 19.2499 11.9182 19.2121 12.3666 19.1373L12.7019 17.3017C12.7233 17.1842 12.7543 17.0686 12.7945 16.9561C13.2034 15.812 14.4624 15.2159 15.6066 15.6247L17.3621 16.2525C17.9467 15.5453 18.4103 14.7455 18.7315 13.8851L17.3084 12.6769C17.2174 12.5995 17.1328 12.5149 17.0554 12.4239C16.2691 11.4977 16.3824 10.1093 17.3086 9.32289L18.7315 8.1147C18.4103 7.25425 17.9467 6.45452 17.3621 5.74734L15.6065 6.37505C15.494 6.41526 15.3784 6.44623 15.2609 6.46767C14.0656 6.68566 12.9199 5.89337 12.702 4.69821L12.3666 2.86249C11.9182 2.78778 11.4616 2.7499 10.9999 2.7499C10.5379 2.7499 10.0811 2.78783 9.63241 2.86264L9.29802 4.69806C9.27659 4.8156 9.24561 4.93119 9.20541 5.0437C8.79653 6.18786 7.53754 6.78393 6.39329 6.37502L4.6378 5.74734C4.05323 6.45452 3.58963 7.25425 3.26838 8.1147ZM8.24996 10.9999C8.24996 9.48112 9.48118 8.2499 10.9999 8.2499C12.5187 8.2499 13.7499 9.48112 13.7499 10.9999C13.7499 12.5187 12.5187 13.7499 10.9999 13.7499C9.48118 13.7499 8.24996 12.5187 8.24996 10.9999ZM9.34996 10.9999C9.34996 11.9111 10.0887 12.6499 10.9999 12.6499C11.9112 12.6499 12.6499 11.9111 12.6499 10.9999C12.6499 10.0886 11.9112 9.3499 10.9999 9.3499C10.0887 9.3499 9.34996 10.0886 9.34996 10.9999Z" fill="#212121"/>
</svg>
