<svg width="26" height="26" viewBox="0 0 26 26" fill="none" xmlns="http://www.w3.org/2000/svg">
<path d="M24.2499 2.58984H21.414C21.3872 2.58984 21.3644 2.60236 21.3383 2.6051C21.2839 2.61066 21.2331 2.61969 21.1821 2.63666C21.1395 2.65076 21.101 2.66815 21.0621 2.68927C21.0173 2.71362 20.977 2.74005 20.938 2.77295C20.9021 2.8031 20.8717 2.83521 20.842 2.8714C20.8114 2.90869 20.7853 2.94666 20.7621 2.98987C20.7381 3.03424 20.7213 3.07977 20.7066 3.12897C20.6986 3.15564 20.6813 3.17706 20.6762 3.20508L20.2467 5.55243L1.89296 6.625C1.82264 6.62012 1.76063 6.63037 1.68202 6.6377C1.2743 6.6748 0.971568 7.03223 1.00184 7.44043C1.00428 7.47119 1.00819 7.50098 1.01405 7.53027L2.29286 14.5049C2.58534 15.5864 3.48622 16.6782 4.8412 16.6782H18.2108L17.9245 18.2427H6.67469C5.25038 18.2427 4.0912 19.4019 4.0912 20.8262C4.0912 22.251 5.25038 23.4102 6.67469 23.4102C8.09901 23.4102 9.25819 22.251 9.25819 20.8262C9.25819 20.438 9.16597 20.0733 9.01191 19.7427H15.92C15.7659 20.0733 15.6737 20.438 15.6737 20.8262C15.6737 22.251 16.8329 23.4102 18.2572 23.4102C19.6815 23.4102 20.8407 22.251 20.8407 20.8262C20.8407 19.8134 20.2493 18.9437 19.3986 18.5204L22.0391 4.08984H24.2499C24.664 4.08984 24.9999 3.75391 24.9999 3.33984C24.9999 2.92578 24.664 2.58984 24.2499 2.58984ZM19.022 12.2448L15.8438 12.2947L16.0169 10.4528L19.3683 10.3524L19.022 12.2448ZM3.14418 10.8387L6.32014 10.7435L6.5279 12.441L3.44636 12.4894L3.14418 10.8387ZM7.32344 10.7134L10.8143 10.6088V12.3737L7.53303 12.4252L7.32344 10.7134ZM10.8143 9.60791L7.20137 9.71625L6.97053 7.83087L10.8143 7.60614V9.60791ZM11.8143 7.54767L15.3046 7.34357L15.1039 9.47931L11.8143 9.57794V7.54767ZM10.8143 13.3739V15.1782H7.87007L7.65522 13.4235L10.8143 13.3739ZM11.8143 13.3582L14.7437 13.3123L14.5684 15.1782H11.8143V13.3582ZM11.8143 12.358V10.5789L15.0096 10.483L14.8378 12.3105L11.8143 12.358ZM19.5524 9.34595L16.1112 9.4491L16.3145 7.28455L19.9688 7.07086L19.5524 9.34595ZM5.97065 7.88934L6.19801 9.74628L2.96186 9.84332C2.82551 9.10248 2.71693 8.52673 2.6244 8.08496L5.97065 7.88934ZM3.75477 14.1743L3.62892 13.4868L6.65016 13.4393L6.86305 15.1782H4.8412C4.19862 15.1782 3.84071 14.4819 3.75477 14.1743ZM15.5728 15.1782L15.7496 13.2964L18.8385 13.2479L18.4852 15.1782H15.5728ZM7.75819 20.8262C7.75819 21.4238 7.27235 21.9102 6.67469 21.9102C6.07704 21.9102 5.5912 21.4238 5.5912 20.8262C5.5912 20.2285 6.07704 19.7427 6.67469 19.7427C7.27235 19.7427 7.75819 20.2285 7.75819 20.8262ZM18.2572 21.9102C17.6596 21.9102 17.1737 21.4238 17.1737 20.8262C17.1737 20.2285 17.6596 19.7427 18.2572 19.7427C18.8549 19.7427 19.3407 20.2285 19.3407 20.8262C19.3407 21.4238 18.8549 21.9102 18.2572 21.9102Z" fill="#1D1D1B"/>
</svg>
