<svg width="33" height="33" viewBox="0 0 30 30" fill="none" xmlns="http://www.w3.org/2000/svg">
<path d="M12 12.75C12 13.9926 10.9926 15 9.75 15C8.50735 15 7.5 13.9926 7.5 12.75C7.5 11.5074 8.50735 10.5 9.75 10.5C10.9926 10.5 12 11.5074 12 12.75Z" fill="#212121"/>
<path d="M6 17.5482C6 16.7622 6.63719 16.125 7.42319 16.125H12.0768C12.8628 16.125 13.5 16.7622 13.5 17.5482C13.5 18.819 12.6351 19.9267 11.4022 20.235L11.3136 20.2572C10.287 20.5138 9.21299 20.5138 8.18636 20.2572L8.09784 20.235C6.86492 19.9267 6 18.819 6 17.5482Z" fill="#212121"/>
<path d="M17.25 12C16.8359 12 16.5 12.3358 16.5 12.75C16.5 13.1642 16.8359 13.5 17.25 13.5H21.75C22.1642 13.5 22.5 13.1642 22.5 12.75C22.5 12.3358 22.1642 12 21.75 12H17.25Z" fill="#212121"/>
<path d="M17.25 16.5C16.8359 16.5 16.5 16.8359 16.5 17.25C16.5 17.6641 16.8359 18 17.25 18H21.75C22.1642 18 22.5 17.6641 22.5 17.25C22.5 16.8359 22.1642 16.5 21.75 16.5H17.25Z" fill="#212121"/>
<path d="M3 8.625C3 7.17525 4.17525 6 5.625 6H24.375C25.8248 6 27 7.17525 27 8.625V21.375C27 22.8248 25.8248 24 24.375 24H5.625C4.17525 24 3 22.8248 3 21.375V8.625ZM5.625 7.5C5.00368 7.5 4.5 8.00368 4.5 8.625V21.375C4.5 21.9963 5.00368 22.5 5.625 22.5H24.375C24.9963 22.5 25.5 21.9963 25.5 21.375V8.625C25.5 8.00368 24.9963 7.5 24.375 7.5H5.625Z" fill="#212121"/>
<path d="M3 8.625C3 7.17525 4.17525 6 5.625 6H24.375C25.8248 6 27 7.17525 27 8.625V21.375C27 22.8248 25.8248 24 24.375 24H5.625C4.17525 24 3 22.8248 3 21.375V8.625ZM5.625 7.5C5.00368 7.5 4.5 8.00368 4.5 8.625V21.375C4.5 21.9963 5.00368 22.5 5.625 22.5H24.375C24.9963 22.5 25.5 21.9963 25.5 21.375V8.625C25.5 8.00368 24.9963 7.5 24.375 7.5H5.625Z" fill="#212121"/>
</svg>
